# xmcd
#
# Track frame offsets: 
#        150
#        25627
#        51882
#        71327
#        96660
#        116415
#        138975
#        159420
#
# Disc length: 2622 seconds
#
# Revision: 2
# Processed by: cddbd v1.5.2PL0 Copyright (c) Steve Scherf et al.
# Submitted via: ExactAudioCopy v0.99pb3
#
DISCID=640a3c08
DTITLE=Ray Barretto - Barretto
DYEAR=1979
DGENRE=Salsa
TTITLE0=Guararé
TTITLE1=Vine pa echar candela
TTITLE2=Eso es amar
TTITLE3=Ban ban quere
TTITLE4=Vale más un guaguancó
TTITLE5=Testigo fuí
TTITLE6=El presupuesto
TTITLE7=Canto Abacuá
EXTD=YEAR: 1979
EXTT0=
EXTT1=
EXTT2=
EXTT3=
EXTT4=
EXTT5=
EXTT6=
EXTT7=
PLAYORDER=
